<?xml version="1.0" standalone="no"?><!DOCTYPE svg PUBLIC "-//W3C//DTD SVG 1.1//EN" "http://www.w3.org/Graphics/SVG/1.1/DTD/svg11.dtd"><svg t="1535861588939" class="icon" style="" viewBox="0 0 2403 1024" version="1.1" xmlns="http://www.w3.org/2000/svg" p-id="12258" xmlns:xlink="http://www.w3.org/1999/xlink" width="1201.5" height="512"><defs><style type="text/css"></style></defs><path d="M524.288 28.672 12.288 715.434667 12.288 768.682667 527.018667 768.682667 527.018667 1003.52 578.901333 1003.52 578.901333 768.682667 753.664 768.682667 753.664 720.896 578.901333 720.896 578.901333 28.672 524.288 28.672ZM522.922667 105.130667 527.018667 105.130667 527.018667 720.896 65.536 720.896 522.922667 105.130667ZM1201.493333 9.557333C1081.344 9.557333 995.328 65.536 940.714667 177.493333 898.389333 262.144 877.909333 374.101333 877.909333 516.096 877.909333 656.725333 898.389333 770.048 940.714667 854.698667 995.328 966.656 1081.344 1022.634667 1201.493333 1022.634667 1320.277333 1022.634667 1407.658667 966.656 1462.272 854.698667 1503.232 768.682667 1525.077333 655.36 1525.077333 516.096 1525.077333 375.466667 1503.232 262.144 1462.272 177.493333 1407.658667 65.536 1320.277333 9.557333 1201.493333 9.557333L1201.493333 9.557333ZM1201.493333 58.709333C1301.162667 58.709333 1373.525333 109.226667 1419.946667 210.261333 1455.445333 286.72 1473.194667 387.754667 1473.194667 516.096 1473.194667 643.072 1455.445333 745.472 1419.946667 821.930667 1373.525333 922.965333 1301.162667 973.482667 1201.493333 973.482667 1100.458667 973.482667 1028.096 922.965333 983.04 821.930667 947.541333 745.472 931.157333 644.437333 931.157333 516.096 931.157333 387.754667 947.541333 285.354667 983.04 210.261333 1028.096 109.226667 1100.458667 58.709333 1201.493333 58.709333L1201.493333 58.709333ZM2162.688 28.672 1650.688 715.434667 1650.688 768.682667 2165.418667 768.682667 2165.418667 1003.52 2217.301333 1003.52 2217.301333 768.682667 2392.064 768.682667 2392.064 720.896 2217.301333 720.896 2217.301333 28.672 2162.688 28.672ZM2161.322667 105.130667 2165.418667 105.130667 2165.418667 720.896 1703.936 720.896 2161.322667 105.130667Z" p-id="12259" fill="#BFCCD6"></path></svg>